<svg xmlns="http://www.w3.org/2000/svg" version="1.1" width="1870" height="480" style="position: absolute; top: 0px; left: 0px; background-color: transparent"><g transform="translate(50, 75)"><path d="M885,25C885,62.5 177,62.5 177,100" fill="none" stroke="#666666" stroke-width="2"></path><path d="M885,25C885,62.5 531,62.5 531,100" fill="none" stroke="#666666" stroke-width="2"></path><path d="M885,25C885,62.5 885,62.5 885,100" fill="none" stroke="#666666" stroke-width="2"></path><path d="M885,25C885,62.5 1239,62.5 1239,100" fill="none" stroke="#666666" stroke-width="2"></path><path d="M885,25C885,62.5 1593,62.5 1593,100" fill="none" stroke="#666666" stroke-width="2"></path><path d="M177,150C177,187.5 44.25,187.5 44.25,225" fill="none" stroke="#666666" stroke-width="2"></path><path d="M177,150C177,187.5 132.75,187.5 132.75,225" fill="none" stroke="#666666" stroke-width="2"></path><path d="M177,150C177,187.5 221.25,187.5 221.25,225" fill="none" stroke="#666666" stroke-width="2"></path><path d="M177,150C177,187.5 309.75,187.5 309.75,225" fill="none" stroke="#666666" stroke-width="2"></path><path d="M531,150C531,187.5 398.25,187.5 398.25,225" fill="none" stroke="#666666" stroke-width="2"></path><path d="M531,150C531,187.5 486.75,187.5 486.75,225" fill="none" stroke="#666666" stroke-width="2"></path><path d="M531,150C531,187.5 575.25,187.5 575.25,225" fill="none" stroke="#666666" stroke-width="2"></path><path d="M531,150C531,187.5 663.75,187.5 663.75,225" fill="none" stroke="#666666" stroke-width="2"></path><path d="M885,150C885,187.5 752.25,187.5 752.25,225" fill="none" stroke="#666666" stroke-width="2"></path><path d="M885,150C885,187.5 840.75,187.5 840.75,225" fill="none" stroke="#666666" stroke-width="2"></path><path d="M885,150C885,187.5 929.25,187.5 929.25,225" fill="none" stroke="#666666" stroke-width="2"></path><path d="M885,150C885,187.5 1017.75,187.5 1017.75,225" fill="none" stroke="#666666" stroke-width="2"></path><path d="M1239,150C1239,187.5 1106.25,187.5 1106.25,225" fill="none" stroke="#666666" stroke-width="2"></path><path d="M1239,150C1239,187.5 1194.75,187.5 1194.75,225" fill="none" stroke="#666666" stroke-width="2"></path><path d="M1239,150C1239,187.5 1283.25,187.5 1283.25,225" fill="none" stroke="#666666" stroke-width="2"></path><path d="M1239,150C1239,187.5 1371.75,187.5 1371.75,225" fill="none" stroke="#666666" stroke-width="2"></path><path d="M1593,150C1593,187.5 1460.25,187.5 1460.25,225" fill="none" stroke="#666666" stroke-width="2"></path><path d="M1593,150C1593,187.5 1548.75,187.5 1548.75,225" fill="none" stroke="#666666" stroke-width="2"></path><path d="M1593,150C1593,187.5 1637.25,187.5 1637.25,225" fill="none" stroke="#666666" stroke-width="2"></path><path d="M1593,150C1593,187.5 1725.75,187.5 1725.75,225" fill="none" stroke="#666666" stroke-width="2"></path><g class="node-group" transform="translate(847.5, -25) scale(1.0)"><rect class="bg" x="0" y="0" width="75" height="50" fill="rgb(220, 220, 220)" stroke="none"></rect><line x1="0" y1="25" x2="75" y2="25" stroke="rgb(32, 32, 32)" stroke-width="1"></line><line x1="25" y1="0" x2="25" y2="50" stroke="rgb(32, 32, 32)" stroke-width="1"></line><line x1="50" y1="0" x2="50" y2="50" stroke="rgb(32, 32, 32)" stroke-width="1"></line><rect class="border" x="0" y="0" width="75" height="50" fill="none" stroke="rgb(32, 32, 32)" stroke-width="2"></rect><line x1="75" y1="25" x2="50" y2="50" stroke="rgb(32, 32, 32)" stroke-width="1"></line><path d="M12.5,75L37.5,50L62.5,75Z" stroke="rgb(32, 32, 32)" stroke-width="2" fill="white"></path></g><g class="node-group" transform="translate(139.5, 100) scale(1.0)"><rect class="bg" x="0" y="0" width="75" height="50" fill="rgb(220, 220, 220)" stroke="none"></rect><line x1="0" y1="25" x2="75" y2="25" stroke="rgb(32, 32, 32)" stroke-width="1"></line><line x1="25" y1="0" x2="25" y2="50" stroke="rgb(32, 32, 32)" stroke-width="1"></line><line x1="50" y1="0" x2="50" y2="50" stroke="rgb(32, 32, 32)" stroke-width="1"></line><rect class="border" x="0" y="0" width="75" height="50" fill="none" stroke="rgb(32, 32, 32)" stroke-width="2"></rect><circle cx="13" cy="13" r="5" stroke="rgba(20, 64, 185, 1.0)" fill="none" stroke-width="1.6666666666666667"></circle><line x1="75" y1="25" x2="50" y2="50" stroke="rgb(32, 32, 32)" stroke-width="1"></line><path d="M12.5,50L37.5,75L62.5,50Z" stroke="rgb(32, 32, 32)" stroke-width="2" fill="white"></path></g><g class="node-group" transform="translate(6.75, 225) scale(1.0)"><rect class="bg" x="0" y="0" width="75" height="50" fill="rgb(220, 220, 220)" stroke="none"></rect><line x1="0" y1="25" x2="75" y2="25" stroke="rgb(32, 32, 32)" stroke-width="1"></line><line x1="25" y1="0" x2="25" y2="50" stroke="rgb(32, 32, 32)" stroke-width="1"></line><line x1="50" y1="0" x2="50" y2="50" stroke="rgb(32, 32, 32)" stroke-width="1"></line><rect class="border" x="0" y="0" width="75" height="50" fill="none" stroke="rgb(32, 32, 32)" stroke-width="2"></rect><circle cx="13" cy="13" r="5" stroke="rgba(20, 64, 185, 1.0)" fill="none" stroke-width="1.6666666666666667"></circle><line x1="33" y1="8" x2="43" y2="18" stroke="rgba(231, 38, 30, 1.0)" stroke-width="1.6666666666666667"></line><line x1="33" y1="18" x2="43" y2="8" stroke="rgba(231, 38, 30, 1.0)" stroke-width="1.6666666666666667"></line><line x1="75" y1="25" x2="50" y2="50" stroke="rgb(32, 32, 32)" stroke-width="1"></line></g><g class="node-group" transform="translate(95.25, 225) scale(1.0)"><rect class="bg" x="0" y="0" width="75" height="50" fill="rgb(220, 220, 220)" stroke="none"></rect><line x1="0" y1="25" x2="75" y2="25" stroke="rgb(32, 32, 32)" stroke-width="1"></line><line x1="25" y1="0" x2="25" y2="50" stroke="rgb(32, 32, 32)" stroke-width="1"></line><line x1="50" y1="0" x2="50" y2="50" stroke="rgb(32, 32, 32)" stroke-width="1"></line><rect class="border" x="0" y="0" width="75" height="50" fill="none" stroke="rgb(32, 32, 32)" stroke-width="2"></rect><circle cx="13" cy="13" r="5" stroke="rgba(20, 64, 185, 1.0)" fill="none" stroke-width="1.6666666666666667"></circle><line x1="58" y1="8" x2="68" y2="18" stroke="rgba(231, 38, 30, 1.0)" stroke-width="1.6666666666666667"></line><line x1="58" y1="18" x2="68" y2="8" stroke="rgba(231, 38, 30, 1.0)" stroke-width="1.6666666666666667"></line><line x1="75" y1="25" x2="50" y2="50" stroke="rgb(32, 32, 32)" stroke-width="1"></line></g><g class="node-group" transform="translate(183.75, 225) scale(1.0)"><rect class="bg" x="0" y="0" width="75" height="50" fill="rgb(220, 220, 220)" stroke="none"></rect><line x1="0" y1="25" x2="75" y2="25" stroke="rgb(32, 32, 32)" stroke-width="1"></line><line x1="25" y1="0" x2="25" y2="50" stroke="rgb(32, 32, 32)" stroke-width="1"></line><line x1="50" y1="0" x2="50" y2="50" stroke="rgb(32, 32, 32)" stroke-width="1"></line><rect class="border" x="0" y="0" width="75" height="50" fill="none" stroke="rgb(32, 32, 32)" stroke-width="2"></rect><circle cx="13" cy="13" r="5" stroke="rgba(20, 64, 185, 1.0)" fill="none" stroke-width="1.6666666666666667"></circle><line x1="8" y1="33" x2="18" y2="43" stroke="rgba(231, 38, 30, 1.0)" stroke-width="1.6666666666666667"></line><line x1="8" y1="43" x2="18" y2="33" stroke="rgba(231, 38, 30, 1.0)" stroke-width="1.6666666666666667"></line><line x1="75" y1="25" x2="50" y2="50" stroke="rgb(32, 32, 32)" stroke-width="1"></line></g><g class="node-group" transform="translate(272.25, 225) scale(1.0)"><rect class="bg" x="0" y="0" width="75" height="50" fill="rgb(220, 220, 220)" stroke="none"></rect><line x1="0" y1="25" x2="75" y2="25" stroke="rgb(32, 32, 32)" stroke-width="1"></line><line x1="25" y1="0" x2="25" y2="50" stroke="rgb(32, 32, 32)" stroke-width="1"></line><line x1="50" y1="0" x2="50" y2="50" stroke="rgb(32, 32, 32)" stroke-width="1"></line><rect class="border" x="0" y="0" width="75" height="50" fill="none" stroke="rgb(32, 32, 32)" stroke-width="2"></rect><circle cx="13" cy="13" r="5" stroke="rgba(20, 64, 185, 1.0)" fill="none" stroke-width="1.6666666666666667"></circle><line x1="33" y1="33" x2="43" y2="43" stroke="rgba(231, 38, 30, 1.0)" stroke-width="1.6666666666666667"></line><line x1="33" y1="43" x2="43" y2="33" stroke="rgba(231, 38, 30, 1.0)" stroke-width="1.6666666666666667"></line><line x1="75" y1="25" x2="50" y2="50" stroke="rgb(32, 32, 32)" stroke-width="1"></line></g><g class="node-group" transform="translate(493.5, 100) scale(1.0)"><rect class="bg" x="0" y="0" width="75" height="50" fill="rgb(220, 220, 220)" stroke="none"></rect><line x1="0" y1="25" x2="75" y2="25" stroke="rgb(32, 32, 32)" stroke-width="1"></line><line x1="25" y1="0" x2="25" y2="50" stroke="rgb(32, 32, 32)" stroke-width="1"></line><line x1="50" y1="0" x2="50" y2="50" stroke="rgb(32, 32, 32)" stroke-width="1"></line><rect class="border" x="0" y="0" width="75" height="50" fill="none" stroke="rgb(32, 32, 32)" stroke-width="2"></rect><circle cx="38" cy="13" r="5" stroke="rgba(20, 64, 185, 1.0)" fill="none" stroke-width="1.6666666666666667"></circle><line x1="75" y1="25" x2="50" y2="50" stroke="rgb(32, 32, 32)" stroke-width="1"></line><path d="M12.5,50L37.5,75L62.5,50Z" stroke="rgb(32, 32, 32)" stroke-width="2" fill="white"></path></g><g class="node-group" transform="translate(360.75, 225) scale(1.0)"><rect class="bg" x="0" y="0" width="75" height="50" fill="rgb(220, 220, 220)" stroke="none"></rect><line x1="0" y1="25" x2="75" y2="25" stroke="rgb(32, 32, 32)" stroke-width="1"></line><line x1="25" y1="0" x2="25" y2="50" stroke="rgb(32, 32, 32)" stroke-width="1"></line><line x1="50" y1="0" x2="50" y2="50" stroke="rgb(32, 32, 32)" stroke-width="1"></line><rect class="border" x="0" y="0" width="75" height="50" fill="none" stroke="rgb(32, 32, 32)" stroke-width="2"></rect><line x1="8" y1="8" x2="18" y2="18" stroke="rgba(231, 38, 30, 1.0)" stroke-width="1.6666666666666667"></line><line x1="8" y1="18" x2="18" y2="8" stroke="rgba(231, 38, 30, 1.0)" stroke-width="1.6666666666666667"></line><circle cx="38" cy="13" r="5" stroke="rgba(20, 64, 185, 1.0)" fill="none" stroke-width="1.6666666666666667"></circle><line x1="75" y1="25" x2="50" y2="50" stroke="rgb(32, 32, 32)" stroke-width="1"></line></g><g class="node-group" transform="translate(449.25, 225) scale(1.0)"><rect class="bg" x="0" y="0" width="75" height="50" fill="rgb(220, 220, 220)" stroke="none"></rect><line x1="0" y1="25" x2="75" y2="25" stroke="rgb(32, 32, 32)" stroke-width="1"></line><line x1="25" y1="0" x2="25" y2="50" stroke="rgb(32, 32, 32)" stroke-width="1"></line><line x1="50" y1="0" x2="50" y2="50" stroke="rgb(32, 32, 32)" stroke-width="1"></line><rect class="border" x="0" y="0" width="75" height="50" fill="none" stroke="rgb(32, 32, 32)" stroke-width="2"></rect><circle cx="38" cy="13" r="5" stroke="rgba(20, 64, 185, 1.0)" fill="none" stroke-width="1.6666666666666667"></circle><line x1="58" y1="8" x2="68" y2="18" stroke="rgba(231, 38, 30, 1.0)" stroke-width="1.6666666666666667"></line><line x1="58" y1="18" x2="68" y2="8" stroke="rgba(231, 38, 30, 1.0)" stroke-width="1.6666666666666667"></line><line x1="75" y1="25" x2="50" y2="50" stroke="rgb(32, 32, 32)" stroke-width="1"></line></g><g class="node-group" transform="translate(537.75, 225) scale(1.0)"><rect class="bg" x="0" y="0" width="75" height="50" fill="rgb(220, 220, 220)" stroke="none"></rect><line x1="0" y1="25" x2="75" y2="25" stroke="rgb(32, 32, 32)" stroke-width="1"></line><line x1="25" y1="0" x2="25" y2="50" stroke="rgb(32, 32, 32)" stroke-width="1"></line><line x1="50" y1="0" x2="50" y2="50" stroke="rgb(32, 32, 32)" stroke-width="1"></line><rect class="border" x="0" y="0" width="75" height="50" fill="none" stroke="rgb(32, 32, 32)" stroke-width="2"></rect><circle cx="38" cy="13" r="5" stroke="rgba(20, 64, 185, 1.0)" fill="none" stroke-width="1.6666666666666667"></circle><line x1="8" y1="33" x2="18" y2="43" stroke="rgba(231, 38, 30, 1.0)" stroke-width="1.6666666666666667"></line><line x1="8" y1="43" x2="18" y2="33" stroke="rgba(231, 38, 30, 1.0)" stroke-width="1.6666666666666667"></line><line x1="75" y1="25" x2="50" y2="50" stroke="rgb(32, 32, 32)" stroke-width="1"></line></g><g class="node-group" transform="translate(626.25, 225) scale(1.0)"><rect class="bg" x="0" y="0" width="75" height="50" fill="rgb(220, 220, 220)" stroke="none"></rect><line x1="0" y1="25" x2="75" y2="25" stroke="rgb(32, 32, 32)" stroke-width="1"></line><line x1="25" y1="0" x2="25" y2="50" stroke="rgb(32, 32, 32)" stroke-width="1"></line><line x1="50" y1="0" x2="50" y2="50" stroke="rgb(32, 32, 32)" stroke-width="1"></line><rect class="border" x="0" y="0" width="75" height="50" fill="none" stroke="rgb(32, 32, 32)" stroke-width="2"></rect><circle cx="38" cy="13" r="5" stroke="rgba(20, 64, 185, 1.0)" fill="none" stroke-width="1.6666666666666667"></circle><line x1="33" y1="33" x2="43" y2="43" stroke="rgba(231, 38, 30, 1.0)" stroke-width="1.6666666666666667"></line><line x1="33" y1="43" x2="43" y2="33" stroke="rgba(231, 38, 30, 1.0)" stroke-width="1.6666666666666667"></line><line x1="75" y1="25" x2="50" y2="50" stroke="rgb(32, 32, 32)" stroke-width="1"></line></g><g class="node-group" transform="translate(847.5, 100) scale(1.0)"><rect class="bg" x="0" y="0" width="75" height="50" fill="rgb(220, 220, 220)" stroke="none"></rect><line x1="0" y1="25" x2="75" y2="25" stroke="rgb(32, 32, 32)" stroke-width="1"></line><line x1="25" y1="0" x2="25" y2="50" stroke="rgb(32, 32, 32)" stroke-width="1"></line><line x1="50" y1="0" x2="50" y2="50" stroke="rgb(32, 32, 32)" stroke-width="1"></line><rect class="border" x="0" y="0" width="75" height="50" fill="none" stroke="rgb(32, 32, 32)" stroke-width="2"></rect><circle cx="63" cy="13" r="5" stroke="rgba(20, 64, 185, 1.0)" fill="none" stroke-width="1.6666666666666667"></circle><line x1="75" y1="25" x2="50" y2="50" stroke="rgb(32, 32, 32)" stroke-width="1"></line><path d="M12.5,50L37.5,75L62.5,50Z" stroke="rgb(32, 32, 32)" stroke-width="2" fill="white"></path></g><g class="node-group" transform="translate(714.75, 225) scale(1.0)"><rect class="bg" x="0" y="0" width="75" height="50" fill="rgb(220, 220, 220)" stroke="none"></rect><line x1="0" y1="25" x2="75" y2="25" stroke="rgb(32, 32, 32)" stroke-width="1"></line><line x1="25" y1="0" x2="25" y2="50" stroke="rgb(32, 32, 32)" stroke-width="1"></line><line x1="50" y1="0" x2="50" y2="50" stroke="rgb(32, 32, 32)" stroke-width="1"></line><rect class="border" x="0" y="0" width="75" height="50" fill="none" stroke="rgb(32, 32, 32)" stroke-width="2"></rect><line x1="8" y1="8" x2="18" y2="18" stroke="rgba(231, 38, 30, 1.0)" stroke-width="1.6666666666666667"></line><line x1="8" y1="18" x2="18" y2="8" stroke="rgba(231, 38, 30, 1.0)" stroke-width="1.6666666666666667"></line><circle cx="63" cy="13" r="5" stroke="rgba(20, 64, 185, 1.0)" fill="none" stroke-width="1.6666666666666667"></circle><line x1="75" y1="25" x2="50" y2="50" stroke="rgb(32, 32, 32)" stroke-width="1"></line></g><g class="node-group" transform="translate(803.25, 225) scale(1.0)"><rect class="bg" x="0" y="0" width="75" height="50" fill="rgb(220, 220, 220)" stroke="none"></rect><line x1="0" y1="25" x2="75" y2="25" stroke="rgb(32, 32, 32)" stroke-width="1"></line><line x1="25" y1="0" x2="25" y2="50" stroke="rgb(32, 32, 32)" stroke-width="1"></line><line x1="50" y1="0" x2="50" y2="50" stroke="rgb(32, 32, 32)" stroke-width="1"></line><rect class="border" x="0" y="0" width="75" height="50" fill="none" stroke="rgb(32, 32, 32)" stroke-width="2"></rect><line x1="33" y1="8" x2="43" y2="18" stroke="rgba(231, 38, 30, 1.0)" stroke-width="1.6666666666666667"></line><line x1="33" y1="18" x2="43" y2="8" stroke="rgba(231, 38, 30, 1.0)" stroke-width="1.6666666666666667"></line><circle cx="63" cy="13" r="5" stroke="rgba(20, 64, 185, 1.0)" fill="none" stroke-width="1.6666666666666667"></circle><line x1="75" y1="25" x2="50" y2="50" stroke="rgb(32, 32, 32)" stroke-width="1"></line></g><g class="node-group" transform="translate(891.75, 225) scale(1.0)"><rect class="bg" x="0" y="0" width="75" height="50" fill="rgb(220, 220, 220)" stroke="none"></rect><line x1="0" y1="25" x2="75" y2="25" stroke="rgb(32, 32, 32)" stroke-width="1"></line><line x1="25" y1="0" x2="25" y2="50" stroke="rgb(32, 32, 32)" stroke-width="1"></line><line x1="50" y1="0" x2="50" y2="50" stroke="rgb(32, 32, 32)" stroke-width="1"></line><rect class="border" x="0" y="0" width="75" height="50" fill="none" stroke="rgb(32, 32, 32)" stroke-width="2"></rect><circle cx="63" cy="13" r="5" stroke="rgba(20, 64, 185, 1.0)" fill="none" stroke-width="1.6666666666666667"></circle><line x1="8" y1="33" x2="18" y2="43" stroke="rgba(231, 38, 30, 1.0)" stroke-width="1.6666666666666667"></line><line x1="8" y1="43" x2="18" y2="33" stroke="rgba(231, 38, 30, 1.0)" stroke-width="1.6666666666666667"></line><line x1="75" y1="25" x2="50" y2="50" stroke="rgb(32, 32, 32)" stroke-width="1"></line></g><g class="node-group" transform="translate(980.25, 225) scale(1.0)"><rect class="bg" x="0" y="0" width="75" height="50" fill="rgb(220, 220, 220)" stroke="none"></rect><line x1="0" y1="25" x2="75" y2="25" stroke="rgb(32, 32, 32)" stroke-width="1"></line><line x1="25" y1="0" x2="25" y2="50" stroke="rgb(32, 32, 32)" stroke-width="1"></line><line x1="50" y1="0" x2="50" y2="50" stroke="rgb(32, 32, 32)" stroke-width="1"></line><rect class="border" x="0" y="0" width="75" height="50" fill="none" stroke="rgb(32, 32, 32)" stroke-width="2"></rect><circle cx="63" cy="13" r="5" stroke="rgba(20, 64, 185, 1.0)" fill="none" stroke-width="1.6666666666666667"></circle><line x1="33" y1="33" x2="43" y2="43" stroke="rgba(231, 38, 30, 1.0)" stroke-width="1.6666666666666667"></line><line x1="33" y1="43" x2="43" y2="33" stroke="rgba(231, 38, 30, 1.0)" stroke-width="1.6666666666666667"></line><line x1="75" y1="25" x2="50" y2="50" stroke="rgb(32, 32, 32)" stroke-width="1"></line></g><g class="node-group" transform="translate(1201.5, 100) scale(1.0)"><rect class="bg" x="0" y="0" width="75" height="50" fill="rgb(220, 220, 220)" stroke="none"></rect><line x1="0" y1="25" x2="75" y2="25" stroke="rgb(32, 32, 32)" stroke-width="1"></line><line x1="25" y1="0" x2="25" y2="50" stroke="rgb(32, 32, 32)" stroke-width="1"></line><line x1="50" y1="0" x2="50" y2="50" stroke="rgb(32, 32, 32)" stroke-width="1"></line><rect class="border" x="0" y="0" width="75" height="50" fill="none" stroke="rgb(32, 32, 32)" stroke-width="2"></rect><circle cx="13" cy="38" r="5" stroke="rgba(20, 64, 185, 1.0)" fill="none" stroke-width="1.6666666666666667"></circle><line x1="75" y1="25" x2="50" y2="50" stroke="rgb(32, 32, 32)" stroke-width="1"></line><path d="M12.5,50L37.5,75L62.5,50Z" stroke="rgb(32, 32, 32)" stroke-width="2" fill="white"></path></g><g class="node-group" transform="translate(1068.75, 225) scale(1.0)"><rect class="bg" x="0" y="0" width="75" height="50" fill="rgb(220, 220, 220)" stroke="none"></rect><line x1="0" y1="25" x2="75" y2="25" stroke="rgb(32, 32, 32)" stroke-width="1"></line><line x1="25" y1="0" x2="25" y2="50" stroke="rgb(32, 32, 32)" stroke-width="1"></line><line x1="50" y1="0" x2="50" y2="50" stroke="rgb(32, 32, 32)" stroke-width="1"></line><rect class="border" x="0" y="0" width="75" height="50" fill="none" stroke="rgb(32, 32, 32)" stroke-width="2"></rect><line x1="8" y1="8" x2="18" y2="18" stroke="rgba(231, 38, 30, 1.0)" stroke-width="1.6666666666666667"></line><line x1="8" y1="18" x2="18" y2="8" stroke="rgba(231, 38, 30, 1.0)" stroke-width="1.6666666666666667"></line><circle cx="13" cy="38" r="5" stroke="rgba(20, 64, 185, 1.0)" fill="none" stroke-width="1.6666666666666667"></circle><line x1="75" y1="25" x2="50" y2="50" stroke="rgb(32, 32, 32)" stroke-width="1"></line></g><g class="node-group" transform="translate(1157.25, 225) scale(1.0)"><rect class="bg" x="0" y="0" width="75" height="50" fill="rgb(220, 220, 220)" stroke="none"></rect><line x1="0" y1="25" x2="75" y2="25" stroke="rgb(32, 32, 32)" stroke-width="1"></line><line x1="25" y1="0" x2="25" y2="50" stroke="rgb(32, 32, 32)" stroke-width="1"></line><line x1="50" y1="0" x2="50" y2="50" stroke="rgb(32, 32, 32)" stroke-width="1"></line><rect class="border" x="0" y="0" width="75" height="50" fill="none" stroke="rgb(32, 32, 32)" stroke-width="2"></rect><line x1="33" y1="8" x2="43" y2="18" stroke="rgba(231, 38, 30, 1.0)" stroke-width="1.6666666666666667"></line><line x1="33" y1="18" x2="43" y2="8" stroke="rgba(231, 38, 30, 1.0)" stroke-width="1.6666666666666667"></line><circle cx="13" cy="38" r="5" stroke="rgba(20, 64, 185, 1.0)" fill="none" stroke-width="1.6666666666666667"></circle><line x1="75" y1="25" x2="50" y2="50" stroke="rgb(32, 32, 32)" stroke-width="1"></line></g><g class="node-group" transform="translate(1245.75, 225) scale(1.0)"><rect class="bg" x="0" y="0" width="75" height="50" fill="rgb(220, 220, 220)" stroke="none"></rect><line x1="0" y1="25" x2="75" y2="25" stroke="rgb(32, 32, 32)" stroke-width="1"></line><line x1="25" y1="0" x2="25" y2="50" stroke="rgb(32, 32, 32)" stroke-width="1"></line><line x1="50" y1="0" x2="50" y2="50" stroke="rgb(32, 32, 32)" stroke-width="1"></line><rect class="border" x="0" y="0" width="75" height="50" fill="none" stroke="rgb(32, 32, 32)" stroke-width="2"></rect><line x1="58" y1="8" x2="68" y2="18" stroke="rgba(231, 38, 30, 1.0)" stroke-width="1.6666666666666667"></line><line x1="58" y1="18" x2="68" y2="8" stroke="rgba(231, 38, 30, 1.0)" stroke-width="1.6666666666666667"></line><circle cx="13" cy="38" r="5" stroke="rgba(20, 64, 185, 1.0)" fill="none" stroke-width="1.6666666666666667"></circle><line x1="75" y1="25" x2="50" y2="50" stroke="rgb(32, 32, 32)" stroke-width="1"></line></g><g class="node-group" transform="translate(1334.25, 225) scale(1.0)"><rect class="bg" x="0" y="0" width="75" height="50" fill="rgb(220, 220, 220)" stroke="none"></rect><line x1="0" y1="25" x2="75" y2="25" stroke="rgb(32, 32, 32)" stroke-width="1"></line><line x1="25" y1="0" x2="25" y2="50" stroke="rgb(32, 32, 32)" stroke-width="1"></line><line x1="50" y1="0" x2="50" y2="50" stroke="rgb(32, 32, 32)" stroke-width="1"></line><rect class="border" x="0" y="0" width="75" height="50" fill="none" stroke="rgb(32, 32, 32)" stroke-width="2"></rect><circle cx="13" cy="38" r="5" stroke="rgba(20, 64, 185, 1.0)" fill="none" stroke-width="1.6666666666666667"></circle><line x1="33" y1="33" x2="43" y2="43" stroke="rgba(231, 38, 30, 1.0)" stroke-width="1.6666666666666667"></line><line x1="33" y1="43" x2="43" y2="33" stroke="rgba(231, 38, 30, 1.0)" stroke-width="1.6666666666666667"></line><line x1="75" y1="25" x2="50" y2="50" stroke="rgb(32, 32, 32)" stroke-width="1"></line></g><g class="node-group" transform="translate(1555.5, 100) scale(1.0)"><rect class="bg" x="0" y="0" width="75" height="50" fill="rgb(220, 220, 220)" stroke="none"></rect><line x1="0" y1="25" x2="75" y2="25" stroke="rgb(32, 32, 32)" stroke-width="1"></line><line x1="25" y1="0" x2="25" y2="50" stroke="rgb(32, 32, 32)" stroke-width="1"></line><line x1="50" y1="0" x2="50" y2="50" stroke="rgb(32, 32, 32)" stroke-width="1"></line><rect class="border" x="0" y="0" width="75" height="50" fill="none" stroke="rgb(32, 32, 32)" stroke-width="2"></rect><circle cx="38" cy="38" r="5" stroke="rgba(20, 64, 185, 1.0)" fill="none" stroke-width="1.6666666666666667"></circle><line x1="75" y1="25" x2="50" y2="50" stroke="rgb(32, 32, 32)" stroke-width="1"></line><path d="M12.5,50L37.5,75L62.5,50Z" stroke="rgb(32, 32, 32)" stroke-width="2" fill="white"></path></g><g class="node-group" transform="translate(1422.75, 225) scale(1.0)"><rect class="bg" x="0" y="0" width="75" height="50" fill="rgb(220, 220, 220)" stroke="none"></rect><line x1="0" y1="25" x2="75" y2="25" stroke="rgb(32, 32, 32)" stroke-width="1"></line><line x1="25" y1="0" x2="25" y2="50" stroke="rgb(32, 32, 32)" stroke-width="1"></line><line x1="50" y1="0" x2="50" y2="50" stroke="rgb(32, 32, 32)" stroke-width="1"></line><rect class="border" x="0" y="0" width="75" height="50" fill="none" stroke="rgb(32, 32, 32)" stroke-width="2"></rect><line x1="8" y1="8" x2="18" y2="18" stroke="rgba(231, 38, 30, 1.0)" stroke-width="1.6666666666666667"></line><line x1="8" y1="18" x2="18" y2="8" stroke="rgba(231, 38, 30, 1.0)" stroke-width="1.6666666666666667"></line><circle cx="38" cy="38" r="5" stroke="rgba(20, 64, 185, 1.0)" fill="none" stroke-width="1.6666666666666667"></circle><line x1="75" y1="25" x2="50" y2="50" stroke="rgb(32, 32, 32)" stroke-width="1"></line></g><g class="node-group" transform="translate(1511.25, 225) scale(1.0)"><rect class="bg" x="0" y="0" width="75" height="50" fill="rgb(220, 220, 220)" stroke="none"></rect><line x1="0" y1="25" x2="75" y2="25" stroke="rgb(32, 32, 32)" stroke-width="1"></line><line x1="25" y1="0" x2="25" y2="50" stroke="rgb(32, 32, 32)" stroke-width="1"></line><line x1="50" y1="0" x2="50" y2="50" stroke="rgb(32, 32, 32)" stroke-width="1"></line><rect class="border" x="0" y="0" width="75" height="50" fill="none" stroke="rgb(32, 32, 32)" stroke-width="2"></rect><line x1="33" y1="8" x2="43" y2="18" stroke="rgba(231, 38, 30, 1.0)" stroke-width="1.6666666666666667"></line><line x1="33" y1="18" x2="43" y2="8" stroke="rgba(231, 38, 30, 1.0)" stroke-width="1.6666666666666667"></line><circle cx="38" cy="38" r="5" stroke="rgba(20, 64, 185, 1.0)" fill="none" stroke-width="1.6666666666666667"></circle><line x1="75" y1="25" x2="50" y2="50" stroke="rgb(32, 32, 32)" stroke-width="1"></line></g><g class="node-group" transform="translate(1599.75, 225) scale(1.0)"><rect class="bg" x="0" y="0" width="75" height="50" fill="rgb(220, 220, 220)" stroke="none"></rect><line x1="0" y1="25" x2="75" y2="25" stroke="rgb(32, 32, 32)" stroke-width="1"></line><line x1="25" y1="0" x2="25" y2="50" stroke="rgb(32, 32, 32)" stroke-width="1"></line><line x1="50" y1="0" x2="50" y2="50" stroke="rgb(32, 32, 32)" stroke-width="1"></line><rect class="border" x="0" y="0" width="75" height="50" fill="none" stroke="rgb(32, 32, 32)" stroke-width="2"></rect><line x1="58" y1="8" x2="68" y2="18" stroke="rgba(231, 38, 30, 1.0)" stroke-width="1.6666666666666667"></line><line x1="58" y1="18" x2="68" y2="8" stroke="rgba(231, 38, 30, 1.0)" stroke-width="1.6666666666666667"></line><circle cx="38" cy="38" r="5" stroke="rgba(20, 64, 185, 1.0)" fill="none" stroke-width="1.6666666666666667"></circle><line x1="75" y1="25" x2="50" y2="50" stroke="rgb(32, 32, 32)" stroke-width="1"></line></g><g class="node-group" transform="translate(1688.25, 225) scale(1.0)"><rect class="bg" x="0" y="0" width="75" height="50" fill="rgb(220, 220, 220)" stroke="none"></rect><line x1="0" y1="25" x2="75" y2="25" stroke="rgb(32, 32, 32)" stroke-width="1"></line><line x1="25" y1="0" x2="25" y2="50" stroke="rgb(32, 32, 32)" stroke-width="1"></line><line x1="50" y1="0" x2="50" y2="50" stroke="rgb(32, 32, 32)" stroke-width="1"></line><rect class="border" x="0" y="0" width="75" height="50" fill="none" stroke="rgb(32, 32, 32)" stroke-width="2"></rect><line x1="8" y1="33" x2="18" y2="43" stroke="rgba(231, 38, 30, 1.0)" stroke-width="1.6666666666666667"></line><line x1="8" y1="43" x2="18" y2="33" stroke="rgba(231, 38, 30, 1.0)" stroke-width="1.6666666666666667"></line><circle cx="38" cy="38" r="5" stroke="rgba(20, 64, 185, 1.0)" fill="none" stroke-width="1.6666666666666667"></circle><line x1="75" y1="25" x2="50" y2="50" stroke="rgb(32, 32, 32)" stroke-width="1"></line></g></g></svg>
